<?xml version="1.0" encoding="UTF-8" standalone="no"?>
<!-- Created with Inkscape (http://www.inkscape.org/) -->

<svg
   xmlns:dc="http://purl.org/dc/elements/1.1/"
   xmlns:cc="http://creativecommons.org/ns#"
   xmlns:rdf="http://www.w3.org/1999/02/22-rdf-syntax-ns#"
   xmlns:svg="http://www.w3.org/2000/svg"
   xmlns="http://www.w3.org/2000/svg"
   xmlns:sodipodi="http://sodipodi.sourceforge.net/DTD/sodipodi-0.dtd"
   xmlns:inkscape="http://www.inkscape.org/namespaces/inkscape"
   version="1.1"
   id="svg2"
   xml:space="preserve"
   width="667.53333"
   height="667.53333"
   viewBox="0 0 667.53333 667.53333"
   sodipodi:docname="meteor-rain-publicdomainvectors.org.svg"
   inkscape:version="0.92.5 (2060ec1f9f, 2020-04-08)"><metadata
     id="metadata8"><rdf:RDF><cc:Work
         rdf:about=""><dc:format>image/svg+xml</dc:format><dc:type
           rdf:resource="http://purl.org/dc/dcmitype/StillImage" /><dc:title></dc:title></cc:Work></rdf:RDF></metadata><defs
     id="defs6" /><sodipodi:namedview
     pagecolor="#ffffff"
     bordercolor="#666666"
     borderopacity="1"
     objecttolerance="10"
     gridtolerance="10"
     guidetolerance="10"
     inkscape:pageopacity="0"
     inkscape:pageshadow="2"
     inkscape:window-width="669"
     inkscape:window-height="480"
     id="namedview4"
     showgrid="false"
     inkscape:zoom="0.3535404"
     inkscape:cx="333.76666"
     inkscape:cy="333.76666"
     inkscape:window-x="72"
     inkscape:window-y="27"
     inkscape:window-maximized="0"
     inkscape:current-layer="g10" /><g
     id="g10"
     inkscape:groupmode="layer"
     inkscape:label="ink_ext_XXXXXX"
     transform="matrix(1.3333333,0,0,-1.3333333,0,667.53333)"><path
       inkscape:connector-curvature="0"
       id="path14"
       style="fill:#2d2a2d;fill-opacity:1;fill-rule:evenodd;stroke:none;stroke-width:0.1"
       d="M 0,0 H 500.651 V 500.651 H 0 V 0" /><path
       inkscape:connector-curvature="0"
       id="path16"
       style="fill:#644e47;fill-opacity:1;fill-rule:evenodd;stroke:none;stroke-width:0.1"
       d="m 302.184,83.241 c 2.906,-2.9051 2.906,-7.6172 0,-10.5219 -2.906,-2.907 -7.617,-2.907 -10.522,0 L 59.4805,304.9 v 21.044 L 302.184,83.241" /><path
       inkscape:connector-curvature="0"
       id="path18"
       style="fill:#644e47;fill-opacity:1;fill-rule:evenodd;stroke:none;stroke-width:0.1"
       d="m 462.971,163.413 c 3.669,-3.669 3.669,-9.617 0,-13.285 -3.669,-3.669 -9.617,-3.669 -13.285,0 L 156.532,443.281 v 26.572 l 306.439,-306.44" /><path
       inkscape:connector-curvature="0"
       id="path20"
       style="fill:#644e47;fill-opacity:1;fill-rule:evenodd;stroke:none;stroke-width:0.1"
       d="m 449.164,26.602 c 2.253,-2.2508 2.253,-5.904 0,-8.1571 -2.252,-2.25 -5.903,-2.25 -8.155,0 L 261.042,198.414 v 16.312 L 449.164,26.602" /><path
       inkscape:connector-curvature="0"
       id="path22"
       style="fill:#9d631d;fill-opacity:1;fill-rule:evenodd;stroke:none;stroke-width:0.1"
       d="m 357.097,357.096 c 58.967,-58.967 58.967,-154.573 0,-213.543 -58.968,-58.9659 -154.575,-58.9659 -213.542,0 L 0,287.109 V 500.651 H 213.542 L 357.097,357.096" /><path
       inkscape:connector-curvature="0"
       id="path24"
       style="fill:#ad711d;fill-opacity:1;fill-rule:evenodd;stroke:none;stroke-width:0.1"
       d="m 103.214,500.651 206.463,-206.463 20.39,20.391 -186.07,186.072 z M 0,427.142 221.315,205.827 270.027,254.538 23.9145,500.651 H 0 Z m 0,-79.3 v 40.782 L 202.056,186.567 181.665,166.176 0,347.842 v 0" /><path
       inkscape:connector-curvature="0"
       id="path26"
       style="fill:#ad711d;fill-opacity:1;fill-rule:evenodd;stroke:none;stroke-width:0.1"
       d="m 243.516,114.334 c 77.66,0 141,63.338 141,140.997 0,77.66 -63.34,141 -141,141 -77.658,0 -140.998,-63.34 -140.998,-141 0,-77.659 63.34,-140.997 140.998,-140.997" /><path
       inkscape:connector-curvature="0"
       id="path28"
       style="fill:#faf462;fill-opacity:1;fill-rule:evenodd;stroke:none;stroke-width:0.1"
       d="m 256.584,115.741 c 70.371,0 127.767,57.394 127.767,127.767 0,70.372 -57.396,127.767 -127.767,127.767 -70.372,0 -127.767,-57.395 -127.767,-127.767 0,-70.373 57.395,-127.767 127.767,-127.767" /><path
       inkscape:connector-curvature="0"
       id="path30"
       style="fill:#fbc907;fill-opacity:1;fill-rule:evenodd;stroke:none;stroke-width:0.1"
       d="m 250.326,122.56 c 70.371,0 127.766,57.395 127.766,127.765 0,70.372 -57.395,127.767 -127.766,127.767 -70.372,0 -127.767,-57.395 -127.767,-127.767 0,-70.37 57.395,-127.765 127.767,-127.765" /><path
       inkscape:connector-curvature="0"
       id="path32"
       style="fill:#f39c10;fill-opacity:1;fill-rule:evenodd;stroke:none;stroke-width:0.1"
       d="m 336.222,234.288 c 10.894,0 19.725,-8.831 19.725,-19.726 0,-10.894 -8.831,-19.725 -19.725,-19.725 -10.895,0 -19.726,8.831 -19.726,19.725 0,10.895 8.831,19.726 19.726,19.726 z m -103.433,14.819 c -28.094,0 -50.867,-22.773 -50.867,-50.866 0,-28.091 22.773,-50.864 50.867,-50.864 28.091,0 50.865,22.773 50.865,50.864 0,28.093 -22.774,50.866 -50.865,50.866 z m -71.193,50.882 c 10.894,0 19.725,-8.831 19.725,-19.725 0,-10.894 -8.831,-19.726 -19.725,-19.726 -10.895,0 -19.726,8.832 -19.726,19.726 0,10.894 8.831,19.725 19.726,19.725 z m 58.791,54.455 c 10.894,0 19.726,-8.831 19.726,-19.725 0,-10.895 -8.832,-19.726 -19.726,-19.726 -10.894,0 -19.726,8.831 -19.726,19.726 0,10.894 8.832,19.725 19.726,19.725 z m 64.968,0 c 6.249,0 11.315,-5.064 11.315,-11.314 0,-6.248 -5.066,-11.313 -11.315,-11.313 -6.249,0 -11.312,5.065 -11.312,11.313 0,6.25 5.063,11.314 11.312,11.314 z m 11.315,-34.845 c 19.466,0 35.246,-15.78 35.246,-35.246 0,-19.465 -15.78,-35.246 -35.246,-35.246 -19.466,0 -35.245,15.781 -35.245,35.246 0,19.466 15.779,35.246 35.245,35.246 v 0" /><path
       inkscape:connector-curvature="0"
       id="path34"
       style="fill:#693220;fill-opacity:1;fill-rule:evenodd;stroke:none;stroke-width:0.1"
       d="m 472.02,440.604 c 19.709,-19.71 19.709,-51.667 0,-71.377 -19.711,-19.71 -51.668,-19.71 -71.378,0 L 269.218,500.651 h 142.753 l 60.049,-60.047" /><path
       inkscape:connector-curvature="0"
       id="path36"
       style="fill:#a4421e;fill-opacity:1;fill-rule:evenodd;stroke:none;stroke-width:0.1"
       d="m 436.331,362.209 c 23.522,0 42.705,19.185 42.705,42.706 0,23.522 -19.183,42.707 -42.705,42.707 -23.523,0 -42.707,-19.185 -42.707,-42.707 0,-23.521 19.184,-42.706 42.707,-42.706" /><path
       inkscape:connector-curvature="0"
       id="path38"
       style="fill:#644e47;fill-opacity:1;fill-rule:evenodd;stroke:none;stroke-width:0.1"
       d="m 94.9844,85.1391 c 10.0446,-10.045 10.0446,-26.3309 0,-36.3762 -10.0457,-10.0438 -26.3313,-10.0438 -36.377,0 L 0,107.371 v 72.753 L 94.9844,85.1391" /><path
       inkscape:connector-curvature="0"
       id="path40"
       style="fill:#c5b4ac;fill-opacity:1;fill-rule:evenodd;stroke:none;stroke-width:0.1"
       d="m 76.7965,45.1879 c 11.9871,0 21.764,9.7762 21.764,21.7633 0,11.9898 -9.7769,21.7648 -21.764,21.7648 -11.9875,0 -21.7649,-9.775 -21.7649,-21.7648 0,-11.9871 9.7774,-21.7633 21.7649,-21.7633" /><path
       inkscape:connector-curvature="0"
       id="path42"
       style="fill:#fef0d3;fill-opacity:1;fill-rule:evenodd;stroke:none;stroke-width:0.1"
       d="m 263.634,0 -82.363,82.3648 c -0.739,0.7372 -1.938,0.7372 -2.675,0 -0.74,-0.741 -0.74,-1.9378 0,-2.6757 L 258.283,0 Z M 397.369,0 0,397.369 v -5.351 L 392.018,0 Z m 103.282,59.3301 v -5.352 l -75.335,75.3349 c -0.739,0.738 -0.739,1.938 0,2.676 0.739,0.738 1.937,0.738 2.676,0 z m 0,243.5169 -22.996,22.994 c -0.737,0.739 -1.935,0.739 -2.675,0 -0.738,-0.738 -0.738,-1.936 0,-2.675 l 25.671,-25.671 z m -181.527,197.804 48.518,-48.517 c 0.739,-0.739 1.936,-0.739 2.674,0 0.74,0.738 0.74,1.937 0,2.675 l -45.84,45.842 z m -76.901,0 h 5.352 L 500.651,247.575 v -5.352 z M 0,217.454 217.454,0 h -5.352 L 0,212.102 v 5.352 0" /></g></svg>